<svg width="107.988" height="150.861" xmlns="http://www.w3.org/2000/svg">
 <defs>
  <clipPath id="clip-path">
   <rect fill="#f89261" height="140.068" width="73.292" class="cls-1" data-name="Retângulo 2075" id="Retângulo_2075"/>
  </clipPath>
 </defs>
 <g>
  <title>Layer 1</title>
  <g transform="matrix(0.951, 0.309, -0.309, 0.951, 43.283, 0)" data-name="Grupo 3204" id="Grupo_3204">
   <g clip-path="url(#clip-path)" class="cls-2" data-name="Grupo 3203" id="Grupo_3203">
    <path fill="#f89261" d="m73.287,127.63l0,-115.192a12.413,12.413 0 0 0 -12.438,-12.438l-48.41,0a12.413,12.413 0 0 0 -12.439,12.438l0,115.192a12.413,12.413 0 0 0 12.438,12.438l48.6,0a12.135,12.135 0 0 0 12.249,-12.438m-60.849,-123.801l48.41,0a8.575,8.575 0 0 1 8.611,8.611l0,5.36l-65.632,0l0,-5.361a8.575,8.575 0 0 1 8.611,-8.611m57.021,112.131l-65.632,0l0,-94.335l65.632,0l0,94.335zm-8.611,20.283l-48.41,0a8.575,8.575 0 0 1 -8.611,-8.611l0,-7.845l65.632,0l0,7.845a8.575,8.575 0 0 1 -8.611,8.611" class="cls-1" data-name="Caminho 14578" id="Caminho_14578"/>
    <path fill="#f89261" d="m30.236,14.927l13.2,0a1.917,1.917 0 0 0 1.914,-1.914a1.808,1.808 0 0 0 -1.911,-1.913l-13.203,0a1.808,1.808 0 0 0 -1.914,1.913a1.808,1.808 0 0 0 1.914,1.914" class="cls-1" data-name="Caminho 14579" id="Caminho_14579"/>
    <path fill="#f89261" d="m36.741,121.529a6.209,6.209 0 0 0 -6.315,6.123a6.371,6.371 0 0 0 6.315,6.315a6.209,6.209 0 0 0 6.315,-6.123a6.371,6.371 0 0 0 -6.315,-6.315m0,8.8a2.534,2.534 0 0 1 -2.488,-2.485a2.534,2.534 0 0 1 2.488,-2.488a2.533,2.533 0 0 1 2.485,2.488a2.534,2.534 0 0 1 -2.485,2.485" class="cls-1" data-name="Caminho 14580" id="Caminho_14580"/>
   </g>
  </g>
 </g>
</svg>