<svg xmlns="http://www.w3.org/2000/svg" xmlns:xlink="http://www.w3.org/1999/xlink" width="112.988" height="155.861" viewBox="0 0 112.988 155.861">
  <defs>
    <style>
      .cls-1 {
        fill: #f89261;
      }

      .cls-2 {
        clip-path: url(#clip-path);
      }
    </style>
    <clipPath id="clip-path">
      <rect id="Retângulo_2075" data-name="Retângulo 2075" class="cls-1" width="73.292" height="140.068"/>
    </clipPath>
  </defs>
  <g id="Grupo_3204" data-name="Grupo 3204" transform="matrix(0.951, 0.309, -0.309, 0.951, 43.283, 0)">
    <g id="Grupo_3203" data-name="Grupo 3203" class="cls-2">
      <path id="Caminho_14578" data-name="Caminho 14578" class="cls-1" d="M73.287,127.63V12.438A12.413,12.413,0,0,0,60.849,0H12.439A12.413,12.413,0,0,0,0,12.438V127.63a12.413,12.413,0,0,0,12.438,12.438h48.6A12.135,12.135,0,0,0,73.287,127.63M12.438,3.829h48.41a8.575,8.575,0,0,1,8.611,8.611V17.8H3.827V12.439a8.575,8.575,0,0,1,8.611-8.611M69.459,115.959H3.827V21.624H69.459Zm-8.611,20.283H12.438a8.575,8.575,0,0,1-8.611-8.611v-7.845H69.459v7.845a8.575,8.575,0,0,1-8.611,8.611" transform="translate(0 0)"/>
      <path id="Caminho_14579" data-name="Caminho 14579" class="cls-1" d="M1.914,3.827h13.2a1.917,1.917,0,0,0,1.914-1.914A1.808,1.808,0,0,0,15.117,0H1.914A1.808,1.808,0,0,0,0,1.913,1.808,1.808,0,0,0,1.914,3.827" transform="translate(28.322 11.1)"/>
      <path id="Caminho_14580" data-name="Caminho 14580" class="cls-1" d="M6.315,0A6.209,6.209,0,0,0,0,6.123a6.371,6.371,0,0,0,6.315,6.315A6.209,6.209,0,0,0,12.63,6.315,6.371,6.371,0,0,0,6.315,0m0,8.8A2.534,2.534,0,0,1,3.827,6.315,2.534,2.534,0,0,1,6.315,3.827,2.533,2.533,0,0,1,8.8,6.315,2.534,2.534,0,0,1,6.315,8.8" transform="translate(30.426 121.529)"/>
    </g>
  </g>
</svg>
