<svg xmlns="http://www.w3.org/2000/svg" width="214.51" height="186.863" viewBox="0 0 214.51 186.863">
  <defs>
    <style>
      .cls-1 {
        fill: #ae33b6;
      }
    </style>
  </defs>
  <g id="Grupo_3202" data-name="Grupo 3202" transform="translate(0 42.362) rotate(-13)">
    <g id="Grupo_3201" data-name="Grupo 3201" transform="translate(0 0)">
      <path id="Caminho_14569" data-name="Caminho 14569" class="cls-1" d="M4.972,56.856H0V10.277A10.277,10.277,0,0,1,10.277,0H131.448a2.486,2.486,0,1,1,0,4.972H10.277a5.305,5.305,0,0,0-5.3,5.3Z" transform="translate(0 0)"/>
      <path id="Caminho_14570" data-name="Caminho 14570" class="cls-1" d="M4.972,37.1H128.914v4.839H2.486A2.519,2.519,0,0,1,0,39.457V0H4.972Z" transform="translate(0.047 72.629)"/>
      <path id="Caminho_14571" data-name="Caminho 14571" class="cls-1" d="M48.386,5.86V107.669a2.452,2.452,0,0,1-.181.9,2.5,2.5,0,0,1-.6.9,2.541,2.541,0,0,1-1.836.69H0v-4.839H43.414V5.86A5.663,5.663,0,0,0,42.98,3.7,2.486,2.486,0,1,1,47.49,1.65a9.941,9.941,0,0,1,.9,4.21" transform="translate(139.932 4.417)"/>
      <path id="Caminho_14572" data-name="Caminho 14572" class="cls-1" d="M185.651,0H139.932V4.842H183.3V18.664a5.305,5.305,0,0,1-5.3,5.3H10.277a5.306,5.306,0,0,1-5.3-5.3V4.839l134.96,0V0H2.486A2.475,2.475,0,0,0,.047,2,2.271,2.271,0,0,0,0,2.353V18.664A10.277,10.277,0,0,0,10.277,28.941H177.994A10.274,10.274,0,0,0,188.137,18.8V2.486A2.486,2.486,0,0,0,185.651,0" transform="translate(0 109.734)"/>
      <path id="Caminho_14573" data-name="Caminho 14573" class="cls-1" d="M59.135,25.892H2.478A2.52,2.52,0,0,1,.324,24.666a2.547,2.547,0,0,1,0-2.486L11.895,1.294h0A2.524,2.524,0,0,1,14.083,0H47.566A2.454,2.454,0,0,1,49.72,1.293l11.6,20.885h0a2.547,2.547,0,0,1,0,2.486,2.452,2.452,0,0,1-2.188,1.227ZM6.688,20.919H54.925L46.074,5.105H15.506Z" transform="translate(63.325 133.568)"/>
      <path id="Caminho_14574" data-name="Caminho 14574" class="cls-1" d="M89.112,4.973H2.487A2.487,2.487,0,1,1,2.487,0H89.112a2.487,2.487,0,1,1,0,4.973" transform="translate(48.334 154.487)"/>
      <path id="Caminho_14575" data-name="Caminho 14575" class="cls-1" d="M6.4,4.973H2.487A2.487,2.487,0,1,1,2.487,0H6.4a2.487,2.487,0,1,1,0,4.973" transform="translate(89.741 121.632)"/>
      <path id="Caminho_14576" data-name="Caminho 14576" class="cls-1" d="M128.961,56.856h4.972V10.277A10.277,10.277,0,0,0,123.657,0H2.486a2.486,2.486,0,1,0,0,4.972H123.657a5.305,5.305,0,0,1,5.3,5.3Z" transform="translate(54.385 0)"/>
    </g>
    <path id="Caminho_14577" data-name="Caminho 14577" class="cls-1" d="M17.216,87.383v-.009H8.176A8.187,8.187,0,0,1,0,79.2V54.1C0,36.469,13.019,22.379,29.994,21.164L30.063,5.8A5.777,5.777,0,0,1,35.83.061h.01L40.6,0C63.517,1.179,75.559,14.33,75.559,38.033v1.96a6.985,6.985,0,0,1-6.977,6.977H30.144a8.808,8.808,0,0,0-8.8,8.8V83.236l23.926-.115c2.091-.058,4.111-2.4,4.111-4.812V61.166A3.992,3.992,0,0,0,45.4,57.177H33.007a.924.924,0,0,0-.924.925V69.015A4.521,4.521,0,0,0,36.6,73.531h2.873V62.685H43.6V77.66h-7a8.655,8.655,0,0,1-8.645-8.645V58.1a5.059,5.059,0,0,1,5.053-5.054H45.4a8.126,8.126,0,0,1,8.116,8.118V78.309c0,4.641-3.819,8.819-8.173,8.94ZM29.975,25.3C15.34,26.5,4.129,38.771,4.129,54.1V79.2a4.051,4.051,0,0,0,4.047,4.048h9.04V55.767A12.942,12.942,0,0,1,30.144,42.841H68.582a2.851,2.851,0,0,0,2.848-2.848v-1.96c0-21.441-10.4-32.848-30.91-33.908l-4.657.064h0a1.649,1.649,0,0,0-1.67,1.632L34.123,21.1l16.52.166-.079,4.28A12.158,12.158,0,0,1,46.9,34.187a13.228,13.228,0,0,1-9.3,3.953l-7.687.077Zm4.129-.074-.04,8.818,3.522-.035a9.089,9.089,0,0,0,6.387-2.733,8.083,8.083,0,0,0,2.461-5.752l0-.172Z" transform="translate(60.801 13.642)"/>
  </g>
</svg>
