<svg id="Grupo_3196" data-name="Grupo 3196" xmlns="http://www.w3.org/2000/svg" xmlns:xlink="http://www.w3.org/1999/xlink" width="252.784" height="265.657" viewBox="0 0 252.784 265.657">
  <defs>
    <style>
      .cls-1 {
        fill: #efc499;
      }

      .cls-2 {
        clip-path: url(#clip-path);
      }
    </style>
    <clipPath id="clip-path">
      <rect id="Retângulo_2070" data-name="Retângulo 2070" class="cls-1" width="252.784" height="265.657"/>
    </clipPath>
  </defs>
  <g id="Grupo_3195" data-name="Grupo 3195" class="cls-2">
    <path id="Caminho_14563" data-name="Caminho 14563" class="cls-1" d="M201.349,237.958a72.613,72.613,0,0,0,14.2-116.376c-14.893-13.912-33.943-20.666-54.321-19.742-36.829,2.251-66.9,32.962-67.886,70.138-1.27,27.478,12.931,52.358,36.829,65.924v38.446c0,.635,0,.981.346,1.27a35.491,35.491,0,0,0,70.426,0,1.859,1.859,0,0,0,.346-1.27v-3.175Zm-48.49-32.615H144.43c-3.579-.635-6.812-4.5-6.812-8.428a7.849,7.849,0,0,1,7.735-7.735,7.978,7.978,0,0,1,7.447,5.484ZM173.236,240.9H159.324V211.808h13.912Zm21.647,16.163H136.695v-9.7h58.188Zm-58.188,6.465h58.188v9.7H136.695ZM99.519,172.323c.981-33.6,28.459-61.767,62.056-64.019h4.214a64.2,64.2,0,0,1,45.258,18.126A65.833,65.833,0,0,1,196.5,233.109,3.345,3.345,0,0,0,194.883,236v4.849H179.7V211.75h9.063a15,15,0,0,0,12.584-14.893,14.341,14.341,0,0,0-14.2-14.2,14.6,14.6,0,0,0-13.912,10.333v12.353H159.324v-12.3a14.343,14.343,0,0,0-28.113,3.868c0,7.1,5.83,13.912,12.584,14.893h9.063V240.9H136.695v-4.849a3.345,3.345,0,0,0-1.616-2.886C112.1,221.159,98.538,197.9,99.519,172.323m80.182,33.02V194.663a7.978,7.978,0,0,1,7.447-5.484,7.849,7.849,0,0,1,7.735,7.735,9.085,9.085,0,0,1-6.812,8.428Zm-13.912,96.98a29.177,29.177,0,0,1-28.459-22.629H193.9a28.5,28.5,0,0,1-28.113,22.629" transform="translate(-39.426 -43.016)"/>
    <path id="Caminho_14564" data-name="Caminho 14564" class="cls-1" d="M219.765,36.887V3.233a3.233,3.233,0,0,0-6.465,0v33.6a3.03,3.03,0,0,0,3.233,3.233,2.986,2.986,0,0,0,3.233-3.175" transform="translate(-90.17)"/>
    <path id="Caminho_14565" data-name="Caminho 14565" class="cls-1" d="M367.3,228.433a3.03,3.03,0,0,0,3.233,3.233h34.29a3.233,3.233,0,1,0,0-6.465h-34.29a3.03,3.03,0,0,0-3.233,3.233" transform="translate(-155.271 -95.2)"/>
    <path id="Caminho_14566" data-name="Caminho 14566" class="cls-1" d="M40.062,228.433a3.03,3.03,0,0,0-3.233-3.233H3.233a3.233,3.233,0,0,0,0,6.465h33.6a3.476,3.476,0,0,0,3.233-3.233" transform="translate(0 -95.2)"/>
    <path id="Caminho_14567" data-name="Caminho 14567" class="cls-1" d="M360.615,67.1a3.137,3.137,0,0,0-4.5,0L332.5,90.713a3.137,3.137,0,0,0,0,4.5,3.073,3.073,0,0,0,4.5,0l23.61-23.61a3.137,3.137,0,0,0,0-4.5" transform="translate(-140.158 -27.964)"/>
    <path id="Caminho_14568" data-name="Caminho 14568" class="cls-1" d="M83.7,95.215a3.137,3.137,0,0,0,0-4.5L59.805,67.1a3.184,3.184,0,1,0-4.5,4.5l23.61,23.61a3.544,3.544,0,0,0,2.251.981,4.268,4.268,0,0,0,2.54-.981" transform="translate(-22.976 -27.964)"/>
  </g>
</svg>
